<?xml version="1.0" standalone="no"?>
<!DOCTYPE svg PUBLIC "-//W3C//DTD SVG 20010904//EN"
 "http://www.w3.org/TR/2001/REC-SVG-20010904/DTD/svg10.dtd">
<svg version="1.0" xmlns="http://www.w3.org/2000/svg"
 width="512.000000pt" height="512.000000pt" viewBox="0 0 512.000000 512.000000"
 preserveAspectRatio="xMidYMid meet">
<metadata>
Created by potrace 1.14, written by Peter Selinger 2001-2017
</metadata>
<g transform="translate(0.000000,512.000000) scale(0.100000,-0.100000)"
fill="#000000" stroke="none">
<path d="M0 3370 l0 -1750 263 -3 262 -2 -262 -3 -263 -2 0 -805 0 -805 2560
0 2560 0 0 2560 0 2560 -2560 0 -2560 0 0 -1750z m2340 1490 c0 -5 -5 -10 -11
-10 -5 0 -7 5 -4 10 3 6 8 10 11 10 2 0 4 -4 4 -10z m367 -485 c55 -93 189
-320 297 -503 110 -185 194 -337 190 -344 -4 -6 -3 -8 4 -5 9 6 31 -29 109
-165 2 -5 2 -8 -1 -8 -2 0 -15 18 -27 40 -12 21 -26 37 -30 34 -5 -3 -6 3 -2
12 5 13 3 15 -7 9 -8 -5 -11 -4 -7 2 4 6 0 14 -9 17 -9 3 -12 11 -8 18 5 9 2
8 -9 -1 -15 -12 -17 -12 -12 1 4 9 -1 18 -10 22 -10 4 -15 1 -13 -9 2 -7 -1
-13 -7 -12 -5 1 -9 5 -8 10 4 11 -15 9 -22 -3 -3 -6 -18 -8 -33 -4 -15 3 -34
6 -42 6 -8 1 -21 8 -28 17 -8 9 -11 11 -8 5 3 -7 -1 -17 -8 -24 -12 -9 -17 -7
-24 7 -5 10 -7 23 -5 30 2 6 -1 15 -8 19 -8 4 -9 3 -5 -4 4 -7 5 -12 3 -12
-11 0 -47 73 -41 82 4 7 2 8 -4 4 -7 -4 -12 -2 -12 3 0 19 -3 26 -15 36 -6 6
-78 121 -160 258 -81 136 -150 247 -154 247 -3 0 -67 -100 -141 -221 -113
-185 -141 -223 -172 -240 -46 -23 -49 -24 -41 -1 5 13 3 15 -7 5 -17 -15 -33
0 -51 50 l-13 37 -39 -37 c-22 -21 -38 -33 -35 -28 3 6 45 75 93 155 48 80
155 260 238 400 164 280 167 284 177 273 3 -4 51 -84 107 -178z m-627 -685
c-6 -11 -13 -20 -16 -20 -2 0 0 9 6 20 6 11 13 20 16 20 2 0 0 -9 -6 -20z
m210 -10 c-6 -11 -16 -17 -22 -14 -7 5 -5 12 7 21 25 18 28 17 15 -7z m775
-217 c-1 -26 -17 -36 -38 -25 -7 3 30 52 38 52 1 0 1 -12 0 -27z m42 0 c0 -9
-4 -10 -14 -2 -7 6 -13 12 -13 14 0 1 6 2 13 2 8 0 14 -6 14 -14z m223 -143
c6 -11 8 -20 6 -20 -3 0 -10 9 -16 20 -6 11 -8 20 -6 20 3 0 10 -9 16 -20z
m-1752 -43 c2 -12 -3 -17 -17 -17 -12 0 -21 6 -21 13 0 31 32 34 38 4z m1793
-32 c7 -13 3 -12 -10 5 -11 14 -21 30 -21 35 0 11 14 -7 31 -40z m64 -105 c9
-16 13 -30 11 -30 -3 0 -12 14 -21 30 -9 17 -13 30 -11 30 3 0 12 -13 21 -30z
m566 -3 c-8 -8 -14 -7 -23 2 -11 10 -9 11 6 5 15 -6 17 -4 11 6 -6 9 -4 11 4
5 9 -5 10 -10 2 -18z m-1395 -59 c9 -18 58 -100 109 -183 100 -164 118 -195
111 -195 -3 0 -15 18 -27 39 -12 22 -27 39 -33 38 -6 -1 -9 7 -8 18 2 11 1 17
-4 13 -4 -4 -14 -2 -23 5 -14 11 -15 10 -1 -7 14 -18 13 -19 -3 -13 -11 4 -20
1 -24 -9 -3 -8 -12 -13 -19 -10 -8 3 -13 2 -13 -2 3 -16 -2 -23 -11 -17 -6 4
-7 13 -1 24 7 13 6 18 -4 18 -8 0 -12 -4 -9 -9 3 -4 3 -8 0 -8 -3 0 -17 21
-32 46 l-27 46 -14 -26 c-7 -14 -16 -26 -19 -26 -2 0 0 9 6 20 11 20 -3 30
-15 10 -10 -16 -23 -12 -30 10 -4 11 -10 18 -15 15 -5 -3 -10 1 -13 7 -3 10
-8 10 -21 -1 -16 -13 6 29 89 176 17 29 31 53 32 53 1 0 10 -15 19 -32z m1055
-23 l10 -20 -16 20 c-9 11 -21 29 -26 40 l-10 20 16 -20 c9 -11 21 -29 26 -40z
m-153 -50 c-3 -3 -9 2 -12 12 -6 14 -5 15 5 6 7 -7 10 -15 7 -18z m201 -30
c13 -22 15 -31 6 -20 -18 22 -53 86 -38 70 6 -5 20 -28 32 -50z m72 -117 c23
-40 49 -83 57 -95 8 -13 12 -23 9 -23 -3 0 -29 39 -58 88 -63 105 -61 102 -56
102 3 0 24 -33 48 -72z m-1261 -98 c-6 -11 -13 -20 -16 -20 -2 0 0 9 6 20 6
11 13 20 16 20 2 0 0 -9 -6 -20z m-2100 -8 c0 -13 -12 -22 -22 -16 -10 6 -1
24 13 24 5 0 9 -4 9 -8z m2286 -4 c4 -7 4 -10 -1 -6 -4 4 -15 2 -24 -5 -14
-11 -14 -10 -2 6 16 20 18 21 27 5z m1183 -73 c13 -22 15 -31 6 -20 -18 22
-53 86 -38 70 6 -5 20 -28 32 -50z m86 -142 c32 -54 65 -108 73 -120 8 -13 12
-23 9 -23 -3 0 -36 51 -73 113 -80 133 -76 127 -71 127 3 0 31 -44 62 -97z
m-1067 32 c-3 -3 -9 2 -12 12 -6 14 -5 15 5 6 7 -7 10 -15 7 -18z m-1528 -15
c-6 -11 -13 -20 -16 -20 -2 0 0 9 6 20 6 11 13 20 16 20 2 0 0 -9 -6 -20z
m2400 0 c6 -11 8 -20 6 -20 -3 0 -10 9 -16 20 -6 11 -8 20 -6 20 3 0 10 -9 16
-20z m-2430 -50 c-6 -11 -13 -20 -16 -20 -2 0 0 9 6 20 6 11 13 20 16 20 2 0
0 -9 -6 -20z m210 -20 c-6 -11 -13 -20 -16 -20 -2 0 0 9 6 20 6 11 13 20 16
20 2 0 0 -9 -6 -20z m-239 -29 c-6 -10 -7 -22 -3 -26 4 -5 1 -5 -6 -1 -9 5 -9
12 -2 27 6 10 13 19 16 19 2 0 0 -8 -5 -19z m209 -21 c-6 -11 -13 -20 -16 -20
-2 0 0 9 6 20 6 11 13 20 16 20 2 0 0 -9 -6 -20z m1460 0 c6 -11 8 -20 6 -20
-3 0 -10 9 -16 20 -6 11 -8 20 -6 20 3 0 10 -9 16 -20z m-1691 -43 c0 -9 -2
-8 -6 1 -2 6 -10 9 -15 6 -7 -4 -8 -2 -4 5 9 13 26 5 25 -12z m1796 -139 c48
-84 96 -167 106 -185 l19 -31 -52 2 c-29 1 -63 8 -74 14 -12 6 -24 8 -28 4 -4
-3 -4 2 0 12 5 13 4 17 -3 13 -6 -4 -14 5 -18 21 -3 15 -13 35 -22 44 -8 9
-12 22 -7 30 4 7 4 10 -1 6 -9 -9 -18 2 -60 76 -27 45 -27 48 -7 37 12 -6 22
-16 22 -21 0 -11 41 -50 52 -50 5 0 7 4 4 9 -7 11 13 9 32 -3 19 -11 38 9 25
26 -16 22 -84 148 -79 148 2 0 44 -69 91 -152z m-1812 126 c3 -4 2 -15 -3 -25
-7 -11 -6 -27 0 -45 l11 -27 24 23 c26 24 69 33 96 19 9 -5 21 -3 27 3 7 7 12
8 12 3 0 -5 7 0 16 11 9 10 6 1 -7 -21 -12 -22 -27 -44 -32 -50 -7 -7 -7 -5
-2 4 5 10 4 12 -4 7 -6 -4 -9 -11 -6 -16 3 -5 -52 -108 -123 -227 -221 -373
-262 -444 -262 -454 0 -5 319 -10 788 -11 433 -1 718 -4 634 -5 -147 -3 -153
-4 -147 -23 5 -15 2 -20 -12 -20 -14 0 -15 -2 -5 -9 16 -10 -54 -41 -94 -41
-16 0 -24 -5 -21 -12 2 -7 9 -12 15 -11 5 1 9 -5 8 -15 -1 -14 14 -19 84 -28
l85 -10 -55 -8 c-30 -4 -411 -6 -847 -4 l-791 3 41 70 c22 39 126 212 230 385
104 173 219 365 256 427 65 111 72 119 84 107z m2797 -14 c6 -11 8 -20 6 -20
-3 0 -10 9 -16 20 -6 11 -8 20 -6 20 3 0 10 -9 16 -20z m-2767 -42 c-15 -28
-17 -30 -23 -13 -5 14 -1 23 14 31 12 7 22 12 23 13 1 1 -6 -13 -14 -31z
m1607 12 c6 -11 8 -20 6 -20 -3 0 -10 9 -16 20 -6 11 -8 20 -6 20 3 0 10 -9
16 -20z m990 0 c6 -11 8 -20 6 -20 -3 0 -10 9 -16 20 -6 11 -8 20 -6 20 3 0
10 -9 16 -20z m200 -20 c6 -11 8 -20 6 -20 -3 0 -10 9 -16 20 -6 11 -8 20 -6
20 3 0 10 -9 16 -20z m30 -50 c6 -11 8 -20 6 -20 -3 0 -10 9 -16 20 -6 11 -8
20 -6 20 3 0 10 -9 16 -20z m-2074 -54 c-14 -24 -22 -46 -19 -50 3 -3 1 -6 -6
-6 -7 0 -9 -5 -5 -12 4 -7 3 -8 -5 -4 -9 6 -5 20 15 54 15 26 29 50 31 55 2 4
7 7 10 7 2 0 -7 -20 -21 -44z m2104 4 c6 -11 8 -20 6 -20 -3 0 -10 9 -16 20
-6 11 -8 20 -6 20 3 0 10 -9 16 -20z m-2005 -40 c-9 -17 -13 -36 -9 -42 4 -7
3 -8 -4 -4 -7 4 -12 2 -12 -4 0 -6 -4 -9 -9 -6 -5 4 -12 0 -14 -6 -4 -9 -6 -8
-6 2 -1 13 56 88 67 90 1 0 -5 -14 -13 -30z m1855 -30 c6 -11 8 -20 6 -20 -3
0 -10 9 -16 20 -6 11 -8 20 -6 20 3 0 10 -9 16 -20z m-1970 -27 c0 -3 -9 -3
-20 0 -11 3 -20 2 -20 -3 0 -10 29 -22 39 -15 4 2 8 -2 8 -10 0 -12 -4 -12
-28 0 -23 13 -28 13 -33 0 -4 -11 1 -15 17 -15 13 0 28 -5 33 -10 12 -12 47
-2 38 11 -11 19 29 22 43 3 7 -10 19 -19 26 -20 54 -5 53 -8 -3 -13 -72 -7
-188 8 -168 21 7 4 10 8 5 8 -4 0 -1 13 8 29 11 22 20 28 35 24 11 -3 20 -8
20 -10z m2000 -23 c6 -11 8 -20 6 -20 -3 0 -10 9 -16 20 -6 11 -8 20 -6 20 3
0 10 -9 16 -20z m-170 -90 c6 -11 8 -20 6 -20 -3 0 -10 9 -16 20 -6 11 -8 20
-6 20 3 0 10 -9 16 -20z m235 -20 c9 -16 13 -30 11 -30 -3 0 -12 14 -21 30 -9
17 -13 30 -11 30 3 0 12 -13 21 -30z m35 -60 c6 -11 8 -20 6 -20 -3 0 -10 9
-16 20 -6 11 -8 20 -6 20 3 0 10 -9 16 -20z m-210 -20 c6 -11 8 -20 6 -20 -3
0 -10 9 -16 20 -6 11 -8 20 -6 20 3 0 10 -9 16 -20z m250 -50 c6 -11 8 -20 6
-20 -3 0 -10 9 -16 20 -6 11 -8 20 -6 20 3 0 10 -9 16 -20z m-210 -20 c6 -11
8 -20 6 -20 -3 0 -10 9 -16 20 -6 11 -8 20 -6 20 3 0 10 -9 16 -20z m245 -40
c9 -16 13 -30 11 -30 -3 0 -12 14 -21 30 -9 17 -13 30 -11 30 3 0 12 -13 21
-30z m-215 -10 c6 -11 8 -20 6 -20 -3 0 -10 9 -16 20 -6 11 -8 20 -6 20 3 0
10 -9 16 -20z m319 -169 c39 -68 68 -128 64 -134 -4 -6 -1 -7 7 -2 10 6 12 4
7 -9 -4 -9 -3 -15 2 -12 4 3 17 -12 29 -32 l21 -38 -42 -2 c-31 -2 -38 0 -27
8 13 8 13 10 -2 10 -9 0 -20 -5 -23 -10 -5 -8 -11 -8 -20 0 -9 8 -14 8 -17 0
-2 -7 -12 -8 -33 -1 -32 11 -73 18 -115 21 -23 1 -23 2 -5 10 11 5 15 9 9 9
-6 1 -11 20 -11 45 0 41 -5 52 -44 94 -30 32 -68 108 -60 120 5 9 12 7 26 -8
16 -18 14 -25 -7 -21 -17 2 -6 -9 21 -24 28 -14 30 -14 26 5 -2 11 -6 24 -9
29 -3 5 2 15 11 22 14 12 16 12 8 -1 -8 -13 -7 -13 8 -1 9 7 18 11 18 7 1 -3
2 -10 3 -15 0 -5 5 -13 9 -18 5 -4 7 -3 5 4 -3 11 1 13 23 13 8 0 8 -4 1 -13
-8 -10 -6 -13 8 -13 10 0 16 4 13 9 -3 5 0 7 8 5 8 -3 13 -13 13 -22 -2 -19 7
-21 24 -4 15 15 16 31 0 22 -6 -4 -8 -3 -4 4 3 6 -4 28 -16 49 -12 21 -17 34
-11 28 6 -5 42 -66 82 -134z m-268 101 c-7 -2 -18 1 -23 6 -8 8 -4 9 13 5 13
-4 18 -8 10 -11z m897 -99 c-81 -2 -216 -2 -300 0 -84 1 -18 3 147 3 165 0
234 -2 153 -3z m-1946 -360 c-259 -2 -685 -2 -945 0 -259 1 -47 2 473 2 520 0
732 -1 472 -2z m-57 -399 c0 -10 -8 -20 -17 -22 -18 -3 -26 27 -11 42 12 11
28 0 28 -20z m-1740 -253 c7 -12 -12 -24 -25 -16 -11 7 -4 25 10 25 5 0 11 -4
15 -9z m405 -21 c0 -5 -2 -10 -4 -10 -3 0 -8 5 -11 10 -3 6 -1 10 4 10 6 0 11
-4 11 -10z"/>
<path d="M2996 3522 c-2 -4 -1 -14 4 -22 7 -11 9 -9 7 8 -1 24 -3 26 -11 14z"/>
<path d="M3041 3457 c-8 -10 -7 -14 2 -14 8 0 14 6 14 14 0 7 -1 13 -2 13 -2
0 -8 -6 -14 -13z"/>
<path d="M3043 2215 c0 -8 4 -12 9 -9 5 3 6 10 3 15 -9 13 -12 11 -12 -6z"/>
<path d="M3072 2207 c-10 -11 -9 -17 2 -26 18 -15 31 2 18 25 -7 13 -10 13
-20 1z"/>
<path d="M3100 2161 c0 -6 4 -13 10 -16 6 -3 7 1 4 9 -7 18 -14 21 -14 7z"/>
<path d="M4287 1643 c-12 -11 -8 -25 5 -17 7 5 9 2 6 -8 -7 -18 19 -75 38 -82
7 -3 16 0 20 6 4 6 3 8 -3 5 -14 -9 -37 19 -30 36 6 17 -26 70 -36 60z"/>
<path d="M2931 854 c0 -11 3 -14 6 -6 3 7 2 16 -1 19 -3 4 -6 -2 -5 -13z"/>
</g>
</svg>
